PathFileType	4	(X/Y/Z)	C:/Users/opensim2020/Desktop/walking_exp_matlab/subject01_walking05_straight_02.trc																																																																																																																															
DataRate	CameraRate	NumFrames	NumMarkers	Units	OrigDataRate	OrigDataStartFrame	OrigNumFrames																																																																																																																											
100	100	4	43	mm	100	1604	205																																																																																																																											
Frame#	Time	LFHD			RFHD			LBHD			RBHD			C7			T10			CLAV			STRN			RBAK			LSHO			LUPA			LELB			LFRM			LWRA			LWRB			LFIN			RSHO			RUPA			RELB			RFRM			RWRA			RWRB			RFIN			LASI			RASI			LPSI			RPSI			LTHI			LKNE			LTIB			LANK			LHEE			LTOE			RTHI			RKNE			RTIB			RANK			RHEE			RTOE			*39			*40			*41			*42		
		X1	Y1	Z1	X2	Y2	Z2	X3	Y3	Z3	X4	Y4	Z4	X5	Y5	Z5	X6	Y6	Z6	X7	Y7	Z7	X8	Y8	Z8	X9	Y9	Z9	X10	Y10	Z10	X11	Y11	Z11	X12	Y12	Z12	X13	Y13	Z13	X14	Y14	Z14	X15	Y15	Z15	X16	Y16	Z16	X17	Y17	Z17	X18	Y18	Z18	X19	Y19	Z19	X20	Y20	Z20	X21	Y21	Z21	X22	Y22	Z22	X23	Y23	Z23	X24	Y24	Z24	X25	Y25	Z25	X26	Y26	Z26	X27	Y27	Z27	X28	Y28	Z28	X29	Y29	Z29	X30	Y30	Z30	X31	Y31	Z31	X32	Y32	Z32	X33	Y33	Z33	X34	Y34	Z34	X35	Y35	Z35	X36	Y36	Z36	X37	Y37	Z37	X38	Y38	Z38	X39	Y39	Z39	X40	Y40	Z40	X41	Y41	Z41	X42	Y42	Z42	X43	Y43	Z43
																																																																																																																																		
129	1.28	172.40477	1663.74084	-1537.07214	187.6467	1673.28369	-1424.02661	54.72528	1621.88477	-1525.94519	67.54184	1631.08447	-1405.4425	8.66911	1432.18958	-1473.84326	-26.75046	1138.51245	-1452.75378	153.6246	1361.93848	-1474.40735	194.11604	1208.52979	-1472.40796	-44.0544	1240.17346	-1387.02185	83.55785	1385.14844	-1634.30493	54.30592	1198.66333	-1711.71326	46.40895	1047.71948	-1711.83203	86.49035	944.52783	-1746.6582	173.58005	833.70715	-1744.85181	115.21299	826.59412	-1761.20972	165.50111	760.38293	-1779.79883	92.54088	1398.8291	-1321.49268	23.61471	1207.58398	-1213.15234	15.14627	1082.54968	-1204.03589	43.725	966.1239	-1167.55933	127.08389	850.59949	-1179.77734	83.5576	852.33453	-1140.8584	120.9997	774.50323	-1141.57654	148.36838	933.16443	-1556.66699	147.09116	934.42993	-1339.93384	-38.38002	943.9765	-1503.85693	-35.89664	944.40668	-1358.77612	135.46262	600.61188	-1599.69653	136.39964	466.78717	-1575.44897	85.07904	282.45688	-1578.81909	54.9271	68.63191	-1517.26624	10.86024	39.97978	-1462.97327	202.90446	33.25033	-1522.35742	159.11508	604.67194	-1273.39905	186.11261	449.56818	-1290.35876	44.49144	346.12561	-1291.84106	-99.60162	200.6461	-1341.75134	-153.82701	202.0098	-1399.45471	-37.78418	72.15141	-1330.92578	175.47887	1706.22168	-1447.95984	-1973.01196	1023.37207	3101.94458	-2012.47534	1021.92358	3140.70898	NaN	NaN	NaN
130	1.29	182.78397	1663.87732	-1537.12927	197.8403	1673.15552	-1424.01855	64.88857	1622.57507	-1526.27222	77.54806	1631.61621	-1405.67615	17.94068	1432.63977	-1474.31287	-17.72433	1138.93225	-1453.5636	162.56494	1362.04431	-1474.75403	203.09636	1208.76929	-1473.12146	-34.97419	1240.63123	-1387.67175	92.88911	1385.85339	-1634.69543	64.93752	1199.60913	-1713.02332	59.0101	1048.33691	-1713.98584	102.31384	946.38306	-1749.33838	192.85419	838.53552	-1748.30273	134.95021	829.42371	-1764.31592	187.02193	765.37317	-1783.87097	101.66527	1399.07251	-1321.84729	31.56852	1207.78882	-1214.25171	22.36429	1082.79041	-1205.85681	49.67394	965.99707	-1169.61462	131.64424	849.36108	-1182.22815	88.18442	851.80237	-1143.34424	124.42088	773.15271	-1144.37402	156.89116	933.39227	-1557.96912	156.29233	935.37402	-1341.34888	-29.62169	944.39941	-1503.97266	-26.53976	945.20587	-1358.77991	140.38464	600.19287	-1599.94031	139.59326	466.37314	-1575.75854	86.70152	282.37729	-1578.94092	55.41016	68.66933	-1517.00696	11.00372	40.04744	-1462.79358	203.16136	33.11543	-1522.31409	173.35506	606.62494	-1274.57239	202.51602	452.10464	-1292.22888	63.50552	344.59653	-1292.99719	-75.93504	194.85365	-1342.32031	-131.3007	193.65387	-1399.32141	-7.22516	69.9604	-1331.74561	185.86987	1706.13708	-1447.92834	-1973.05994	1023.85089	3101.74878	-2012.53442	1021.93738	3140.56787	NaN	NaN	NaN
131	1.3	193.10184	1663.88196	-1537.08838	208.06267	1673.03076	-1423.98584	75.03185	1623.18347	-1526.45337	87.51492	1632.00073	-1405.85144	27.18922	1433.04639	-1474.79248	-8.73629	1139.28198	-1454.44409	171.78024	1362.31714	-1475.18665	212.01253	1208.85205	-1473.79126	-26.02288	1241.04688	-1388.44543	102.23722	1386.45886	-1635.08752	75.49125	1200.51611	-1714.39233	71.51426	1048.88989	-1716.07739	117.88035	948.276	-1751.94568	211.94406	843.53949	-1751.65125	154.34447	832.547	-1767.39966	208.31578	770.62128	-1787.82568	110.73335	1399.14343	-1322.35291	39.43185	1207.88745	-1215.45093	29.67297	1082.88074	-1207.5531	55.63352	965.75604	-1171.55542	135.9523	847.99414	-1184.66846	92.84105	850.97357	-1145.44568	127.86894	771.82983	-1146.93616	165.34831	933.3927	-1559.22351	165.41809	936.10321	-1342.70532	-20.92306	944.78992	-1504.16943	-17.24043	945.77692	-1358.83801	145.32047	599.77197	-1600.17834	142.50345	465.86942	-1576.14941	87.62764	282.50568	-1579.29504	55.6422	68.78411	-1516.93408	11.11895	40.20949	-1462.71765	203.27902	32.86285	-1522.25635	187.00294	608.83862	-1275.92627	218.59273	454.51904	-1294.05286	83.07117	342.45074	-1294.28076	-51.61463	188.23671	-1342.86646	-107.60187	184.10034	-1399.25464	23.84284	67.55567	-1332.51318	196.26065	1706.13525	-1447.8302	-1973.02197	1023.32599	3101.84448	-2012.57312	1021.93231	3140.55688	NaN	NaN	NaN
132	1.31	203.34836	1663.96582	-1536.91077	218.11838	1672.8208	-1423.78625	85.07786	1623.75403	-1526.57202	97.42606	1632.29199	-1405.93945	36.5195	1433.47229	-1475.38708	0.35639	1139.53577	-1455.30322	179.96841	1361.99963	-1475.35132	221.13	1209.05786	-1474.46387	-16.93594	1241.3136	-1389.23865	111.62625	1386.96301	-1635.42615	85.95848	1201.3429	-1715.71667	83.87984	1049.41553	-1718.01013	133.28891	950.21368	-1754.44836	230.82846	848.75397	-1754.90259	173.56172	835.85577	-1770.37854	229.50029	776.09436	-1791.58801	119.8259	1399.17993	-1322.76147	47.36737	1207.79346	-1216.58557	36.9657	1082.88464	-1209.21716	61.4761	965.37848	-1173.52576	140.69847	846.7702	-1186.73975	97.49926	850.12994	-1147.60547	131.29622	770.49982	-1149.31042	173.75737	933.33014	-1560.38623	174.56102	936.82825	-1343.9906	-12.2681	945.08612	-1504.43713	-8.02126	946.17407	-1358.90674	150.30159	599.35553	-1600.4502	145.2108	465.3703	-1576.59839	88.60332	282.54974	-1579.51624	55.79127	68.88789	-1516.83655	11.21892	40.53823	-1462.63538	203.43573	32.81023	-1522.24915	200.5193	610.638	-1276.86194	234.32558	456.82385	-1296.03284	102.7309	339.74088	-1295.38037	-26.63747	180.80513	-1343.47986	-83.57097	174.36491	-1399.87415	54.91462	64.71384	-1333.3479	206.64322	1705.9939	-1447.573	-1973.04248	1023.4198	3101.94116	-2012.50061	1022.00806	3140.64209	NaN	NaN	NaN
